<?xml version="1.0" encoding="utf-8"?>
<!-- Generator: Adobe Illustrator 26.5.0, SVG Export Plug-In . SVG Version: 6.00 Build 0)  -->
<svg version="1.1" id="Layer_1" xmlns="http://www.w3.org/2000/svg" xmlns:xlink="http://www.w3.org/1999/xlink" x="0px" y="0px"
	 viewBox="0 0 200.298 194.088" enable-background="new 0 0 200.298 194.088" xml:space="preserve">
<g id="drums">
	
		<ellipse fill="none" stroke="#000000" stroke-width="5.5249" stroke-miterlimit="10" cx="99.202" cy="104.176" rx="41.236" ry="33.704"/>
	
		<ellipse fill="none" stroke="#000000" stroke-width="6.2772" stroke-miterlimit="10" cx="99.202" cy="104.176" rx="46.851" ry="38.293"/>
	
		<image overflow="visible" width="1200" height="1200" xlink:href="C:\Users\devpa\Downloads\—Pngtree—g clef (treble clef) musical_6044268.png"  transform="matrix(0.073 0 0 0.0516 14.1771 23.4015)">
	</image>
	<g id="drumstick_00000110428399509549138110000010598873985100940934_">
		<polygon fill="#2A000B" points="91.118,110.708 100.411,159.908 104.732,159.113 95.439,109.914 		"/>
		
			<ellipse transform="matrix(0.9899 -0.1417 0.1417 0.9899 -14.5803 14.3473)" fill="#2A000B" cx="93.452" cy="109.551" rx="4.663" ry="4.403"/>
	</g>
	<g id="drumstick">
		<polygon fill="#2A000B" points="111.315,100.095 169.08,114.169 170.262,109.446 112.497,95.373 		"/>
		<ellipse fill="#2A000B" cx="111.164" cy="97.198" rx="5.232" ry="5.163"/>
	</g>
	<path fill="none" stroke="#000000" stroke-width="3.329" stroke-miterlimit="10" d="M54.51,192.424h91.278
		c29.186,0,52.845-23.66,52.845-52.845V54.51c0-29.186-23.66-52.845-52.845-52.845H54.51c-29.186,0-52.845,23.66-52.845,52.845
		v85.069C1.665,168.764,25.324,192.424,54.51,192.424z"/>
</g>
</svg>
