<?xml version="1.0" encoding="utf-8"?>
<!-- Generator: Adobe Illustrator 26.5.0, SVG Export Plug-In . SVG Version: 6.00 Build 0)  -->
<svg version="1.1" id="Layer_1" xmlns="http://www.w3.org/2000/svg" xmlns:xlink="http://www.w3.org/1999/xlink" x="0px" y="0px"
	 viewBox="0 0 184.695 192.078" enable-background="new 0 0 184.695 192.078" xml:space="preserve">
<g id="drums">
	
		<ellipse fill="none" stroke="#000000" stroke-width="5.2778" stroke-miterlimit="10" cx="91.475" cy="103.101" rx="38.001" ry="33.375"/>
	
		<ellipse fill="none" stroke="#000000" stroke-width="5.9964" stroke-miterlimit="10" cx="91.475" cy="103.101" rx="43.175" ry="37.92"/>
	<g id="drumstick_00000110428399509549138110000010598873985100940934_">
		<polygon fill="#2A000B" points="84.025,109.569 92.589,158.289 96.571,157.502 88.007,108.783 		"/>
		
			<ellipse transform="matrix(0.3756 -0.9268 0.9268 0.3756 -46.6772 147.5658)" fill="#2A000B" cx="86.176" cy="108.424" rx="4.379" ry="4.279"/>
	</g>
	<g id="drumstick">
		<polygon fill="#2A000B" points="102.638,99.06 155.871,112.996 156.96,108.32 103.727,94.384 		"/>
		<ellipse fill="#2A000B" cx="102.498" cy="96.192" rx="4.822" ry="5.112"/>
	</g>
	<path fill="none" stroke="#000000" stroke-width="3.1801" stroke-miterlimit="10" d="M52.072,190.488h80.552
		c27.88,0,50.482-22.601,50.482-50.482V52.072c0-27.88-22.601-50.482-50.482-50.482H52.072C24.192,1.59,1.59,24.192,1.59,52.072
		v87.934C1.59,167.886,24.192,190.488,52.072,190.488z"/>
	<path id="path26" stroke="#000000" stroke-width="0.6807" d="M40.289,7.056c-4.202-0.084-9.116,7.671-8.953,14.588
		c0.038,2.107,0.898,6.379,2.153,11.745c-7.916,6.332-17.107,12.831-17.107,21.358c-0.126,7.814,6.053,17.77,20.712,17.674
		c2.25-0.012,4.275-0.227,6.074-0.598c1.34,5.679,2.231,10.162,2.226,12.233c0.047,8.163-13.829,8.971-14.494,4.279
		c2.924-0.078,5.251-1.873,5.251-4.094c0-2.268-2.43-4.117-5.445-4.117c-1.658,0-3.135,0.563-4.137,1.442
		c-0.023,0.018-0.05,0.036-0.073,0.054c-0.226,0.186-0.417,0.407-0.605,0.658c-0.618,0.808-1.019,1.969-1.041,3.627
		c0,6.834,22.358,11.233,22.358-2.244c0.035-1.813-0.974-6.416-2.444-12.215c15.953-4.459,11.945-22.766-2.734-22.852
		c-1.138,0.009-2.235,0.111-3.291,0.318c-0.836-3.11-1.643-6.129-2.348-8.903c5.574-4.232,10.441-9.71,10.332-19.805
		C46.742,12.954,43.617,7.14,40.289,7.056z M41.281,14.07c1.902-0.142,3.412,1.223,3.412,4.226
		c0.154,5.159-4.522,9.664-10.09,14.195c-0.533-2.482-0.882-4.493-0.92-5.685C33.841,18.747,38.111,14.306,41.281,14.07z
		 M35.304,40.813c0.679,2.702,1.412,5.549,2.153,8.416c-9.716,2.672-14.379,13.139-0.605,17.823
		c-8.396-5.524-4.263-12.064,1.79-13.203c1.522,5.875,3.009,11.671,4.211,16.68c-1.631,0.443-3.535,0.7-5.759,0.712
		c-5.56,0-16.671-2.735-16.671-13.091C20.423,49.476,28.202,45.951,35.304,40.813z M40.022,53.662c0.242-0.011,0.505-0.007,0.75,0
		c10.115,0,13.929,12.415,3.63,16.383C43.12,65.065,41.566,59.356,40.022,53.662z"/>
</g>
</svg>
