<?xml version="1.0" encoding="utf-8"?>
<!-- Generator: Adobe Illustrator 26.5.0, SVG Export Plug-In . SVG Version: 6.00 Build 0)  -->
<svg version="1.1" id="Layer_1" xmlns="http://www.w3.org/2000/svg" xmlns:xlink="http://www.w3.org/1999/xlink" x="0px" y="0px"
	 viewBox="0 0 167.677 83.772" enable-background="new 0 0 167.677 83.772" xml:space="preserve">
<g id="flute">
	<path fill="#FFD700" stroke="#000000" stroke-width="0.2957" stroke-miterlimit="10" d="M137.518,41.952l-60.248-7.155
		c-3.439,4.001-3.902,8.141-1.787,12.4l60.248,7.155"/>
	<path fill="#FFD700" stroke="#000000" stroke-width="0.296" stroke-miterlimit="10" d="M79.652,35.079L19.3,27.912
		c-3.444,4.001-3.907,8.14-1.787,12.4l60.352,7.168"/>
	
		<ellipse transform="matrix(0.1182 -0.993 0.993 0.1182 14.1764 91.4814)" stroke="#000000" stroke-width="0.296" stroke-miterlimit="10" cx="58.597" cy="37.759" rx="2.818" ry="3.019"/>
	
		<ellipse transform="matrix(0.1182 -0.993 0.993 0.1182 33.5592 119.3355)" stroke="#000000" stroke-width="0.296" stroke-miterlimit="10" cx="83.971" cy="40.772" rx="2.818" ry="3.019"/>
	
		<ellipse transform="matrix(0.1182 -0.993 0.993 0.1182 47.8028 139.8042)" stroke="#000000" stroke-width="0.296" stroke-miterlimit="10" cx="102.618" cy="42.987" rx="2.818" ry="3.019"/>
	
		<ellipse transform="matrix(0.1182 -0.993 0.993 0.1182 62.9652 161.5935)" stroke="#000000" stroke-width="0.296" stroke-miterlimit="10" cx="122.467" cy="45.344" rx="2.818" ry="3.019"/>
	<path fill="none" stroke="#000000" stroke-width="0.2957" stroke-miterlimit="10" d="M68.929,33.806
		c-3.793,3.506-3.935,7.719-1.477,12.437"/>
	<path fill="none" stroke="#000000" stroke-width="0.2957" stroke-miterlimit="10" d="M39.818,30.349
		c-3.16,3.707-3.352,7.902-1.477,12.437"/>
	<path fill="none" stroke="#000000" stroke-width="0.2957" stroke-miterlimit="10" d="M36.89,30.001
		c-3.16,3.707-3.352,7.902-1.477,12.437"/>
	
		<ellipse transform="matrix(0.1179 -0.993 0.993 0.1179 72.9995 178.5729)" stroke="#000000" stroke-width="0.296" stroke-miterlimit="10" cx="137.012" cy="48.198" rx="6.262" ry="3.648"/>
	
		<image overflow="visible" width="1200" height="1200" xlink:href="C:\Users\devpa\Downloads\—Pngtree—g clef (treble clef) musical_6044268.png"  transform="matrix(0.0122 0 0 0.0121 134.5587 27.9117)">
	</image>
	
		<image overflow="visible" width="1200" height="1200" xlink:href="C:\Users\devpa\Downloads\—Pngtree—g clef (treble clef) musical_6044268.png"  transform="matrix(0.0122 0 0 0.0121 123.9844 15.4751)">
	</image>
	<path fill="none" stroke="#000000" stroke-miterlimit="10" d="M17.791,83.272h132.094c9.55,0,17.291-7.742,17.291-17.291V17.791
		c0-9.55-7.742-17.291-17.291-17.291H17.791C8.242,0.5,0.5,8.242,0.5,17.791V65.98C0.5,75.53,8.242,83.272,17.791,83.272z"/>
</g>
</svg>
