<?xml version="1.0" encoding="utf-8"?>
<!-- Generator: Adobe Illustrator 26.5.0, SVG Export Plug-In . SVG Version: 6.00 Build 0)  -->
<svg version="1.1" id="Layer_1" xmlns="http://www.w3.org/2000/svg" xmlns:xlink="http://www.w3.org/1999/xlink" x="0px" y="0px"
	 viewBox="0 0 206.087 206.921" enable-background="new 0 0 206.087 206.921" xml:space="preserve">
<g id="equalizer">
	<path fill="#FFFFFF" stroke="#000000" stroke-width="6.4664" stroke-miterlimit="10" d="M23.233,203.688h159.62
		c11.046,0,20-8.954,20-20V23.233c0-11.046-8.954-20-20-20H23.233c-11.046,0-20,8.954-20,20v160.454
		C3.233,194.733,12.188,203.688,23.233,203.688z"/>
	
		<ellipse fill="#FFFFFF" stroke="#000000" stroke-width="7.6872" stroke-miterlimit="10" cx="38.339" cy="52.824" rx="16.176" ry="0.789"/>
	
		<ellipse fill="#FFFFFF" stroke="#000000" stroke-width="7.6872" stroke-miterlimit="10" cx="38.339" cy="65.636" rx="16.176" ry="0.789"/>
	
		<ellipse fill="#FFFFFF" stroke="#000000" stroke-width="7.6872" stroke-miterlimit="10" cx="38.339" cy="78.229" rx="16.176" ry="0.789"/>
	
		<ellipse fill="#FFFFFF" stroke="#000000" stroke-width="7.6872" stroke-miterlimit="10" cx="78.443" cy="78.229" rx="16.176" ry="0.789"/>
	
		<ellipse fill="#FFFFFF" stroke="#000000" stroke-width="7.6872" stroke-miterlimit="10" cx="78.1" cy="91.229" rx="16.176" ry="0.789"/>
	
		<ellipse fill="#FFFFFF" stroke="#000000" stroke-width="7.6872" stroke-miterlimit="10" cx="78.443" cy="104.645" rx="16.176" ry="0.789"/>
	
		<ellipse fill="#FFFFFF" stroke="#000000" stroke-width="7.6872" stroke-miterlimit="10" cx="118.193" cy="104.645" rx="16.176" ry="0.789"/>
	
		<ellipse fill="#FFFFFF" stroke="#000000" stroke-width="7.6872" stroke-miterlimit="10" cx="157.944" cy="104.645" rx="16.176" ry="0.789"/>
	
		<ellipse fill="#FFFFFF" stroke="#000000" stroke-width="7.6872" stroke-miterlimit="10" cx="157.081" cy="92.019" rx="16.176" ry="0.789"/>
	
		<ellipse fill="#FFFFFF" stroke="#000000" stroke-width="7.6872" stroke-miterlimit="10" cx="158.632" cy="78.229" rx="16.176" ry="0.789"/>
	
		<ellipse fill="#FFFFFF" stroke="#000000" stroke-width="7.6872" stroke-miterlimit="10" cx="157.944" cy="65.636" rx="16.176" ry="0.789"/>
	
		<ellipse fill="#FFFFFF" stroke="#000000" stroke-width="7.6872" stroke-miterlimit="10" cx="157.944" cy="52.824" rx="16.176" ry="0.789"/>
	
		<ellipse fill="#FFFFFF" stroke="#000000" stroke-width="7.6872" stroke-miterlimit="10" cx="157.081" cy="38.241" rx="16.176" ry="0.789"/>
	
		<ellipse fill="#FFFFFF" stroke="#000000" stroke-width="7.6872" stroke-miterlimit="10" cx="157.944" cy="117.4" rx="16.176" ry="0.789"/>
	
		<ellipse fill="#FFFFFF" stroke="#000000" stroke-width="7.6872" stroke-miterlimit="10" cx="157.944" cy="129.499" rx="16.176" ry="0.789"/>
	
		<ellipse fill="#FFFFFF" stroke="#000000" stroke-width="7.6872" stroke-miterlimit="10" cx="157.944" cy="141.599" rx="16.176" ry="0.789"/>
	
		<ellipse fill="#FFFFFF" stroke="#000000" stroke-width="7.6872" stroke-miterlimit="10" cx="157.944" cy="155.028" rx="16.176" ry="0.789"/>
	
		<ellipse fill="#FFFFFF" stroke="#000000" stroke-width="7.6872" stroke-miterlimit="10" cx="118.193" cy="117.4" rx="16.176" ry="0.789"/>
	
		<ellipse fill="#FFFFFF" stroke="#000000" stroke-width="7.6872" stroke-miterlimit="10" cx="118.537" cy="129.499" rx="16.176" ry="0.789"/>
	
		<ellipse fill="#FFFFFF" stroke="#000000" stroke-width="7.6872" stroke-miterlimit="10" cx="118.193" cy="142.926" rx="16.176" ry="0.789"/>
	
		<ellipse fill="#FFFFFF" stroke="#000000" stroke-width="7.6872" stroke-miterlimit="10" cx="118.193" cy="155.817" rx="16.176" ry="0.789"/>
	
		<ellipse fill="#FFFFFF" stroke="#000000" stroke-width="7.6872" stroke-miterlimit="10" cx="78.443" cy="117.4" rx="16.176" ry="0.789"/>
	
		<ellipse fill="#FFFFFF" stroke="#000000" stroke-width="7.6872" stroke-miterlimit="10" cx="78.443" cy="130.154" rx="16.176" ry="0.789"/>
	
		<ellipse fill="#FFFFFF" stroke="#000000" stroke-width="7.6872" stroke-miterlimit="10" cx="78.443" cy="142.137" rx="16.176" ry="0.789"/>
	
		<ellipse fill="#FFFFFF" stroke="#000000" stroke-width="7.6872" stroke-miterlimit="10" cx="78.443" cy="155.028" rx="16.176" ry="0.789"/>
	
		<ellipse fill="#FFFFFF" stroke="#000000" stroke-width="7.6872" stroke-miterlimit="10" cx="38.684" cy="91.229" rx="16.176" ry="0.789"/>
	
		<ellipse fill="#FFFFFF" stroke="#000000" stroke-width="7.6872" stroke-miterlimit="10" cx="38.339" cy="103.856" rx="16.176" ry="0.789"/>
	
		<ellipse fill="#FFFFFF" stroke="#000000" stroke-width="7.6872" stroke-miterlimit="10" cx="37.908" cy="116.611" rx="16.176" ry="0.789"/>
	
		<ellipse fill="#FFFFFF" stroke="#000000" stroke-width="7.6872" stroke-miterlimit="10" cx="37.908" cy="128.71" rx="16.176" ry="0.789"/>
	
		<ellipse fill="#FFFFFF" stroke="#000000" stroke-width="7.6872" stroke-miterlimit="10" cx="37.22" cy="141.348" rx="16.176" ry="0.789"/>
	
		<ellipse fill="#FFFFFF" stroke="#000000" stroke-width="7.6872" stroke-miterlimit="10" cx="37.22" cy="154.239" rx="16.176" ry="0.789"/>
</g>
<g>
</g>
<g>
</g>
<g>
</g>
<g>
</g>
<g>
</g>
<g>
</g>
<g>
</g>
<g>
</g>
<g>
</g>
<g>
</g>
<g>
</g>
<g>
</g>
<g>
</g>
<g>
</g>
<g>
</g>
</svg>
