<?xml version="1.0" encoding="utf-8"?>
<!-- Generator: Adobe Illustrator 26.5.0, SVG Export Plug-In . SVG Version: 6.00 Build 0)  -->
<svg version="1.1" id="Layer_1" xmlns="http://www.w3.org/2000/svg" xmlns:xlink="http://www.w3.org/1999/xlink" x="0px" y="0px"
	 viewBox="0 0 204.894 169.436" enable-background="new 0 0 204.894 169.436" xml:space="preserve">
<g id="Icon-1">
	<g>
		<rect x="54.962" y="93.19" width="149.931" height="5.577"/>
	</g>
	<g>
		<rect x="54.962" y="114.271" width="149.931" height="5.577"/>
	</g>
	<g>
		<rect x="54.962" y="72.109" width="149.931" height="5.577"/>
	</g>
	<g>
		<rect x="54.962" y="51.028" width="149.931" height="5.577"/>
	</g>
	
		<image overflow="visible" width="1200" height="1200" xlink:href="C:\Users\devpa\Downloads\—Pngtree—g clef (treble clef) musical_6044268.png"  transform="matrix(0.1523 0 0 0.1407 0 0)">
	</image>
	<g>
		<path d="M70.17,154.011h-3.966v-1.871h9.655v1.871h-3.986v15.172H70.17V154.011z"/>
		<path d="M77.308,152.368c0.851-0.227,2.071-0.353,3.231-0.353c1.799,0,2.96,0.429,3.773,1.39c0.659,0.759,1.026,1.922,1.026,3.237
			c0,2.251-1.084,3.743-2.457,4.349v0.076c1.006,0.455,1.606,1.669,1.915,3.439c0.426,2.378,0.735,4.02,1.006,4.678H84.06
			c-0.212-0.48-0.503-1.947-0.871-4.071c-0.387-2.351-1.083-3.237-2.612-3.313h-1.587v7.384h-1.683V152.368z M78.991,160.131h1.722
			c1.8,0,2.941-1.29,2.941-3.237c0-2.2-1.219-3.161-2.999-3.187c-0.813,0-1.393,0.102-1.665,0.203V160.131z"/>
		<path d="M94.468,161.193h-5.069v6.144h5.65v1.846h-7.333V152.14h7.043v1.846h-5.36v5.386h5.069V161.193z"/>
		<path d="M97.234,152.368c0.735-0.202,1.896-0.353,3.077-0.353c1.683,0,2.767,0.379,3.58,1.239
			c0.677,0.658,1.083,1.669,1.083,3.009c0,1.644-0.831,3.084-2.205,3.742v0.051c1.238,0.404,2.689,1.744,2.689,4.273
			c0,1.467-0.444,2.579-1.103,3.413c-0.909,1.087-2.38,1.593-4.508,1.593c-1.161,0-2.051-0.101-2.612-0.202V152.368z
			 M98.917,159.346h1.529c1.78,0,2.825-1.213,2.825-2.857c0-1.998-1.162-2.782-2.864-2.782c-0.775,0-1.219,0.076-1.491,0.152
			V159.346z M98.917,167.514c0.329,0.076,0.813,0.102,1.413,0.102c1.741,0,3.347-0.835,3.347-3.313c0-2.326-1.528-3.287-3.367-3.287
			h-1.394V167.514z"/>
		<path d="M107.719,152.14h1.683v15.197h5.572v1.846h-7.255V152.14z"/>
		<path d="M123.602,161.193h-5.069v6.144h5.65v1.846h-7.333V152.14h7.043v1.846h-5.36v5.386h5.069V161.193z"/>
		<path d="M139.582,168.627c-0.619,0.405-1.857,0.809-3.443,0.809c-3.677,0-6.443-3.035-6.443-8.622
			c0-5.335,2.767-8.951,6.811-8.951c1.625,0,2.65,0.456,3.096,0.758l-0.407,1.796c-0.638-0.405-1.547-0.709-2.631-0.709
			c-3.057,0-5.089,2.554-5.089,7.03c0,4.173,1.838,6.853,5.011,6.853c1.026,0,2.071-0.278,2.748-0.708L139.582,168.627z"/>
		<path d="M141.689,152.14h1.683v15.197h5.572v1.846h-7.255V152.14z"/>
		<path d="M152.503,152.14v17.043h-1.683V152.14H152.503z"/>
		<path d="M155.444,152.14h7.024v1.846h-5.341v5.664h4.934v1.821h-4.934v7.712h-1.683V152.14z"/>
		<path d="M164.866,152.14h7.024v1.846h-5.341v5.664h4.934v1.821h-4.934v7.712h-1.683V152.14z"/>
	</g>
</g>
</svg>
